<svg xmlns="http://www.w3.org/2000/svg" viewBox="0 0 256 256">
  <defs>
    <linearGradient id="bg" x1="0%" x2="100%" y1="0%" y2="100%">
      <stop offset="0%" stop-color="#d47142" />
      <stop offset="100%" stop-color="#7f3419" />
    </linearGradient>
  </defs>
  <rect width="256" height="256" rx="56" fill="url(#bg)" />
  <path
    d="M76 66h104c7 0 12 6 11 13l-8 112c-1 6-6 11-12 11H85c-6 0-11-5-12-11L65 79c-1-7 4-13 11-13Z"
    fill="#fff7f0"
    opacity="0.96"
  />
  <path
    d="M95 54c0-10 8-18 18-18h30c10 0 18 8 18 18v12h-14V56c0-4-3-7-7-7h-24c-4 0-7 3-7 7v10H95V54Z"
    fill="#fff7f0"
  />
  <circle cx="98" cy="115" r="10" fill="#d47142" />
  <circle cx="128" cy="145" r="10" fill="#d47142" />
  <circle cx="158" cy="115" r="10" fill="#d47142" />
  <path
    d="M90 182h76"
    stroke="#d47142"
    stroke-linecap="round"
    stroke-width="14"
  />
</svg>
